<svg width="91" height="89" viewBox="0 0 91 89" fill="none" xmlns="http://www.w3.org/2000/svg">
<path d="M45.5823 3.52607e-05C70.7946 0.0268711 91.0069 19.8486 91 44.5335C90.9863 69.2788 70.6711 89.0536 45.3217 88.9999C20.1369 88.9462 -0.0411009 69.0775 5.50739e-05 44.3725C0.041211 19.7345 20.3358 -0.0268006 45.5823 3.52607e-05ZM8.21666 44.4597C8.2098 64.6302 24.8625 80.9505 45.4589 80.9572C66.0827 80.9639 82.7697 64.6772 82.7765 44.5402C82.7834 24.3697 66.1307 8.04947 45.5343 8.04276C24.9174 8.02934 8.22352 24.3227 8.21666 44.4597Z" fill="#E8A119"/>
<path d="M71.8962 18.3465C86.1882 32.5474 85.9499 55.7569 71.3547 70.2303C56.7837 84.6891 33.4196 84.8779 19.1038 70.6534C4.80704 56.4478 5.04527 33.2478 19.6404 18.7744C34.2114 4.31554 57.5804 4.12191 71.8962 18.3465ZM49.9088 54.7344C48.7213 54.7786 48.0962 54.8129 47.4665 54.8234C43.876 54.8609 40.2811 54.8554 36.6901 54.9502C34.647 55.0022 33.1844 56.2085 32.7112 58.012C32.2579 59.7389 32.9578 61.4934 34.4867 62.4722C35.385 63.0462 36.3986 63.0895 37.4368 63.08C44.5553 63.0104 51.6785 62.9551 58.797 62.876C62.5894 62.8367 63.9721 61.4259 64.0123 57.5934C64.0812 50.6492 64.1453 43.7098 64.2046 36.7657C64.2088 36.3171 64.2369 35.873 64.1977 35.4295C63.9922 33.2219 62.2957 31.6529 60.1569 31.6676C57.8931 31.6834 56.1432 33.2981 56.0397 35.6613C55.9285 38.3347 55.947 41.0118 55.9416 43.6843C55.9367 45.2496 55.9848 46.8097 56.0088 48.3748C55.8352 48.4336 55.6617 48.4924 55.4881 48.5513C55.0166 48.0831 54.5404 47.6102 54.0689 47.1421C47.7301 40.848 41.3961 34.5586 35.0573 28.2644C34.4286 27.6402 33.8242 26.9919 33.0061 26.5937C31.3937 25.8019 29.4683 26.1248 28.2165 27.4056C26.9502 28.6914 26.6345 30.6127 27.5478 32.1649C27.9595 32.8626 28.5257 33.4827 29.1067 34.0596C35.031 39.9614 40.9602 45.8488 46.8942 51.741C47.7705 52.6111 48.6611 53.4954 49.9088 54.7344Z" fill="#FFE9BF"/>
<path d="M49.5324 54.6629C48.2964 53.4355 47.4108 52.5562 46.5252 51.6768C40.6243 45.8175 34.7234 39.9678 28.837 34.0941C28.2592 33.5204 27.6961 32.904 27.2863 32.2104C26.3821 30.6724 26.6934 28.7645 27.9447 27.4844C29.1959 26.2138 31.1031 25.9001 32.7007 26.6838C33.5138 27.0803 34.1148 27.7249 34.74 28.3456C41.0434 34.6046 47.342 40.8589 53.6454 47.1179C54.1143 47.5834 54.5878 48.0537 55.0567 48.5192C55.229 48.461 55.4013 48.4027 55.5736 48.3445C55.5479 46.79 55.4982 45.2405 55.5011 43.6858C55.508 41.0267 55.4815 38.3727 55.5887 35.7175C55.6886 33.3705 57.4246 31.769 59.673 31.756C61.802 31.7487 63.4889 33.309 63.691 35.4972C63.7304 35.9377 63.7077 36.3834 63.6994 36.8243C63.6443 43.7164 63.594 50.6132 63.534 57.5101C63.4988 61.3165 62.1225 62.7113 58.3607 62.7505C51.2859 62.8157 44.2208 62.862 37.1461 62.9272C36.1149 62.9354 35.1081 62.8912 34.2153 62.3199C32.6956 61.346 31.9983 59.6026 32.4463 57.888C32.9141 56.0974 34.37 54.9057 36.3944 54.8518C39.9609 54.762 43.5265 54.7766 47.0974 54.739C47.7274 54.7435 48.353 54.7054 49.5324 54.6629Z" fill="#E8A119"/>
</svg>
