<svg width="91" height="89" viewBox="0 0 91 89" fill="none" xmlns="http://www.w3.org/2000/svg">
<path d="M45.5823 3.52607e-05C70.7946 0.0268711 91.0069 19.8486 91 44.5335C90.9863 69.2788 70.6711 89.0536 45.3217 88.9999C20.1369 88.9462 -0.0411009 69.0775 5.50739e-05 44.3725C0.041211 19.7345 20.3358 -0.0268006 45.5823 3.52607e-05ZM8.21666 44.4597C8.2098 64.6302 24.8625 80.9505 45.4589 80.9572C66.0827 80.9639 82.7697 64.6772 82.7765 44.5402C82.7834 24.3697 66.1307 8.04947 45.5343 8.04276C24.9174 8.02934 8.22352 24.3227 8.21666 44.4597Z" fill="#CD4E26"/>
<path d="M82.7896 44.5402C82.7827 64.6165 66.0861 80.8608 45.4589 80.8474C24.8592 80.8407 8.20375 64.5697 8.21061 44.4599C8.21748 24.377 24.9072 8.13937 45.5344 8.15275C66.1342 8.15944 82.7964 24.4305 82.7896 44.5402ZM41.3294 54.8325C40.4582 54.03 39.9917 53.6153 39.539 53.1806C36.9734 50.6861 34.4353 48.1582 31.8287 45.7038C30.347 44.3061 28.4537 44.1322 26.8348 45.0752C25.2845 45.978 24.5299 47.7101 24.9141 49.4757C25.1404 50.5123 25.8264 51.2546 26.5672 51.9768C31.6503 56.9257 36.7265 61.8879 41.8164 66.8301C44.526 69.465 46.5085 69.4383 49.2661 66.7565C54.26 61.8946 59.247 57.0327 64.234 52.1641C64.5564 51.8498 64.8925 51.5555 65.1806 51.2145C66.6075 49.5091 66.5251 47.2086 65.0023 45.7172C63.3903 44.1389 61.0031 44.052 59.247 45.6504C57.2645 47.4627 55.3712 49.3687 53.4642 51.2546C52.3461 52.358 51.2691 53.495 50.1716 54.6185C50.0069 54.5382 49.8423 54.458 49.6777 54.3777C49.6777 53.7156 49.6777 53.0469 49.6777 52.3848C49.6777 43.4836 49.6777 34.589 49.6777 25.6877C49.6777 24.805 49.712 23.9222 49.417 23.0662C48.8408 21.3742 47.2493 20.2507 45.4521 20.2774C43.6411 20.2975 42.0497 21.4344 41.59 23.1732C41.3843 23.9556 41.3431 24.7916 41.3431 25.6075C41.3294 33.9403 41.3294 42.2664 41.3294 50.5992C41.3294 51.8297 41.3294 53.0803 41.3294 54.8325Z" fill="#FFE8E0"/>
<path d="M41.0132 54.7574C41.0132 53.0217 41.0132 51.778 41.0132 50.5344C41.0132 42.2482 41.0064 33.9686 41.0268 25.6823C41.0268 24.871 41.0677 24.0397 41.2718 23.2616C41.7277 21.5392 43.3064 20.4086 45.1028 20.382C46.8925 20.3621 48.4644 21.4793 49.036 23.1552C49.3286 24.0064 49.2945 24.8843 49.2945 25.7621C49.2945 34.6136 49.2945 43.4585 49.2945 52.3101C49.2945 52.9685 49.2945 53.6335 49.2945 54.2919C49.4578 54.3717 49.6212 54.4515 49.7845 54.5313C50.8732 53.414 51.9416 52.2835 53.0507 51.1862C54.9492 49.3108 56.8205 47.4155 58.7871 45.6132C60.5291 44.0238 62.8971 44.1103 64.4962 45.6797C66.0069 47.1694 66.0885 49.4571 64.6731 51.1463C64.3874 51.4854 64.0539 51.7847 63.7341 52.0906C58.7871 56.9254 53.8401 61.7668 48.8862 66.6015C46.1508 69.2683 44.1842 69.2883 41.4963 66.6747C36.4473 61.7535 31.4186 56.8256 26.3695 51.9044C25.6346 51.1862 24.9541 50.448 24.7296 49.4172C24.3485 47.6615 25.097 45.9391 26.6349 45.0413C28.2408 44.1036 30.1189 44.2832 31.5887 45.6664C34.1745 48.1071 36.6854 50.6209 39.2372 53.1015C39.6795 53.547 40.149 53.9593 41.0132 54.7574Z" fill="#CD4E26"/>
</svg>
