<svg width="91" height="89" viewBox="0 0 91 89" fill="none" xmlns="http://www.w3.org/2000/svg">
<path d="M45.5823 3.52607e-05C70.7946 0.0268711 91.0069 19.8486 91 44.5335C90.9863 69.2788 70.6711 89.0536 45.3217 88.9999C20.1369 88.9462 -0.0411009 69.0775 5.50739e-05 44.3725C0.041211 19.7345 20.3358 -0.0268006 45.5823 3.52607e-05ZM8.21666 44.4597C8.2098 64.6302 24.8625 80.9505 45.4589 80.9572C66.0827 80.9639 82.7697 64.6772 82.7765 44.5402C82.7834 24.3697 66.1307 8.04947 45.5343 8.04276C24.9174 8.02934 8.22352 24.3227 8.21666 44.4597Z" fill="#3DB34A"/>
<path d="M19.1609 18.2898C33.4625 4.0985 56.8367 4.33514 71.4128 18.8275C85.9743 33.2958 86.1645 56.4953 71.839 70.7102C57.5325 84.9062 34.1679 84.6696 19.5918 70.1773C5.03037 55.709 4.83536 32.5047 19.1609 18.2898ZM55.807 40.1222C55.8515 41.3014 55.8861 41.9221 55.8967 42.5473C55.9344 46.1125 55.9289 49.6821 56.0243 53.2478C56.0767 55.2765 57.2916 56.7288 59.1078 57.1987C60.847 57.6488 62.614 56.9538 63.5997 55.4357C64.1778 54.5437 64.2214 53.5372 64.2119 52.5063C64.1418 45.438 64.0861 38.3651 64.0064 31.2967C63.9669 27.531 62.546 26.158 58.6863 26.1181C51.6928 26.0497 44.7042 25.986 37.7108 25.9272C37.259 25.923 36.8118 25.8951 36.3651 25.934C34.1418 26.1381 32.5617 27.8226 32.5765 29.9464C32.5925 32.1942 34.2186 33.9318 36.5985 34.0346C39.291 34.145 41.987 34.1266 44.6785 34.132C46.2549 34.1368 47.8261 34.0891 49.4022 34.0652C49.4615 34.2376 49.5208 34.4099 49.58 34.5823C49.1086 35.0504 48.6323 35.5233 48.1608 35.9915C41.822 42.2856 35.488 48.575 29.1492 54.8691C28.5206 55.4933 27.8677 56.0935 27.4666 56.9059C26.6692 58.5069 26.9944 60.4187 28.2843 61.6617C29.5792 62.919 31.5141 63.2325 33.0773 62.3257C33.78 61.9169 34.4045 61.3547 34.9855 60.7778C40.9292 54.8952 46.8584 49.0078 52.7924 43.1156C53.6687 42.2455 54.5593 41.3612 55.807 40.1222Z" fill="#DDFFD1"/>
<path d="M55.6093 40.0314C54.3733 41.2588 53.4877 42.1382 52.6021 43.0175C46.7012 48.8768 40.8099 54.7361 34.8946 60.5811C34.3168 61.1548 33.696 61.7139 32.9976 62.1208C31.4486 63.0186 29.5272 62.7096 28.238 61.4671C26.9583 60.2246 26.6424 58.331 27.4317 56.7446C27.831 55.9372 28.4802 55.3404 29.1053 54.7197C35.4087 48.4607 41.7074 42.2064 48.0108 35.9474C48.4796 35.4819 48.9532 35.0116 49.422 34.5461C49.3634 34.375 49.3047 34.2039 49.2461 34.0328C47.6806 34.0584 46.1201 34.1077 44.5544 34.1048C41.8764 34.0979 39.2035 34.1243 36.5295 34.0179C34.1659 33.9187 32.553 32.1949 32.5399 29.9623C32.5325 27.8483 34.1039 26.1733 36.3077 25.9727C36.7513 25.9335 37.2002 25.956 37.6442 25.9642C44.5852 26.019 51.5309 26.069 58.4768 26.1285C62.3101 26.1635 63.7149 27.5301 63.7543 31.2654C63.82 38.2903 63.8666 45.3056 63.9323 52.3305C63.9405 53.3544 63.896 54.3541 63.3207 55.2407C62.3399 56.7497 60.584 57.4421 58.8573 56.9971C57.054 56.5326 55.8538 55.087 55.7996 53.0769C55.7092 49.5355 55.7238 45.995 55.6859 42.4494C55.6905 41.8237 55.6521 41.2025 55.6093 40.0314Z" fill="#3DB34A"/>
</svg>
