<svg width="91" height="89" viewBox="0 0 91 89" fill="none" xmlns="http://www.w3.org/2000/svg">
<path d="M45.5823 3.52607e-05C70.7946 0.0268711 91.0069 19.8486 91 44.5335C90.9863 69.2788 70.6711 89.0536 45.3217 88.9999C20.1369 88.9462 -0.0411009 69.0775 5.50739e-05 44.3725C0.041211 19.7345 20.3358 -0.0268006 45.5823 3.52607e-05ZM8.21666 44.4597C8.2098 64.6302 24.8625 80.9505 45.4589 80.9572C66.0827 80.9639 82.7697 64.6772 82.7765 44.5402C82.7834 24.3697 66.1307 8.04947 45.5343 8.04276C24.9174 8.02934 8.22352 24.3227 8.21666 44.4597Z" fill="#1A9A55"/>
<path d="M8.21044 44.46C8.21731 24.3837 24.9139 8.13947 45.5411 8.15285C66.1408 8.15954 82.7963 24.4306 82.7894 44.5403C82.7825 64.6233 66.0928 80.8609 45.4656 80.8475C24.8659 80.8408 8.20358 64.5698 8.21044 44.46ZM49.6706 34.1678C50.5418 34.9703 51.0083 35.3849 51.461 35.8196C54.0266 38.3141 56.5647 40.842 59.1713 43.2964C60.653 44.6941 62.5463 44.868 64.1652 43.925C65.7155 43.0222 66.4701 41.2901 66.086 39.5246C65.8596 38.488 65.1736 37.7457 64.4328 37.0234C59.3497 32.0745 54.2735 27.1123 49.1836 22.1701C46.474 19.5352 44.4915 19.562 41.7339 22.2437C36.74 27.1056 31.753 31.9675 26.766 36.8361C26.4436 37.1505 26.1075 37.4447 25.8194 37.7858C24.3925 39.4911 24.4749 41.7917 25.9977 43.283C27.6098 44.8613 29.9969 44.9482 31.753 43.3499C33.7355 41.5375 35.6288 39.6316 37.5358 37.7457C38.6539 36.6422 39.7309 35.5053 40.8284 34.3818C40.9931 34.462 41.1577 34.5423 41.3223 34.6225C41.3223 35.2846 41.3223 35.9534 41.3223 36.6154C41.3223 45.5167 41.3223 54.4112 41.3223 63.3125C41.3223 64.1953 41.288 65.078 41.583 65.9341C42.1592 67.626 43.7507 68.7496 45.5479 68.7228C47.3589 68.7027 48.9504 67.5658 49.41 65.8271C49.6157 65.0446 49.6569 64.2086 49.6569 63.3927C49.6706 55.0599 49.6706 46.7338 49.6706 38.401C49.6706 37.1705 49.6706 35.9199 49.6706 34.1678Z" fill="#CFFFE5"/>
<path d="M49.3022 34.2429C49.3022 35.9786 49.3022 37.2222 49.3022 38.4658C49.3022 46.7521 49.309 55.0317 49.2886 63.3179C49.2886 64.1293 49.2478 64.9606 49.0436 65.7386C48.5877 67.4611 47.009 68.5916 45.2126 68.6182C43.423 68.6382 41.8511 67.5209 41.2795 65.845C40.9869 64.9938 41.0209 64.116 41.0209 63.2381C41.0209 54.3866 41.0209 45.5417 41.0209 36.6902C41.0209 36.0318 41.0209 35.3668 41.0209 34.7084C40.8576 34.6286 40.6943 34.5488 40.531 34.469C39.4422 35.5862 38.3739 36.7168 37.2647 37.8141C35.3662 39.6895 33.4949 41.5848 31.5283 43.387C29.7863 44.9764 27.4183 44.89 25.8192 43.3205C24.3086 41.8308 24.2269 39.5431 25.6423 37.854C25.9281 37.5148 26.2615 37.2155 26.5813 36.9096C31.5283 32.0749 36.4754 27.2335 41.4292 22.3987C44.1647 19.7319 46.1312 19.712 48.8191 22.3255C53.8682 27.2468 58.8969 32.1746 63.9459 37.0958C64.6808 37.8141 65.3613 38.5523 65.5859 39.5831C65.9669 41.3387 65.2184 43.0612 63.6806 43.9589C62.0746 44.8966 60.1965 44.7171 58.7267 43.3338C56.1409 40.8932 53.63 38.3793 51.0783 35.8988C50.6359 35.4532 50.1664 35.0409 49.3022 34.2429Z" fill="#1A9A55"/>
</svg>
