<svg width="91" height="89" viewBox="0 0 91 89" fill="none" xmlns="http://www.w3.org/2000/svg">
<path d="M45.5823 3.52607e-05C70.7946 0.0268711 91.0069 19.8486 91 44.5335C90.9863 69.2788 70.6711 89.0536 45.3217 88.9999C20.1369 88.9462 -0.0411009 69.0775 5.50739e-05 44.3725C0.041211 19.7345 20.3358 -0.0268006 45.5823 3.52607e-05ZM8.21666 44.4597C8.2098 64.6302 24.8625 80.9505 45.4589 80.9572C66.0827 80.9639 82.7697 64.6772 82.7765 44.5402C82.7834 24.3697 66.1307 8.04947 45.5343 8.04276C24.9174 8.02934 8.22352 24.3227 8.21666 44.4597Z" fill="#DDE116"/>
<path d="M45.5406 7.47314C65.7594 7.47995 82.1189 24.0589 82.1055 44.5407C82.0987 64.9953 65.7122 81.5334 45.4598 81.5266C25.2343 81.5198 8.88146 64.9476 8.89494 44.4658C8.90168 24.0112 25.2882 7.46632 45.5406 7.47314ZM55.9059 48.6412C55.0977 49.5062 54.6801 49.9694 54.2423 50.419C51.7302 52.9664 49.1843 55.4866 46.7125 58.075C45.3049 59.5462 45.1298 61.4262 46.0794 63.0336C46.9886 64.573 48.733 65.3223 50.5111 64.9408C51.555 64.7161 52.3026 64.0349 53.03 63.2993C58.014 58.2521 63.0114 53.2116 67.9887 48.1576C70.6423 45.4671 70.6154 43.4986 67.9146 40.7604C63.0182 35.8017 58.1218 30.8498 53.2186 25.898C52.9021 25.5778 52.6057 25.2441 52.2622 24.958C50.5448 23.5412 48.2279 23.6229 46.726 25.1351C45.1365 26.7357 45.0489 29.1061 46.6586 30.8498C48.4838 32.8183 50.4033 34.6983 52.3026 36.5918C53.4139 37.7021 54.5589 38.7715 55.6904 39.8613C55.6096 40.0248 55.5288 40.1882 55.4479 40.3517C54.7812 40.3517 54.1077 40.3517 53.4409 40.3517C44.4765 40.3517 35.5188 40.3517 26.5544 40.3517C25.6653 40.3517 24.7763 40.3177 23.9142 40.6105C22.2102 41.1827 21.0787 42.7629 21.1057 44.5475C21.1259 46.3457 22.2708 47.926 24.022 48.3823C24.81 48.5867 25.6519 48.6275 26.4735 48.6275C34.8655 48.6412 43.2507 48.6412 51.6426 48.6412C52.8819 48.6412 54.1413 48.6412 55.9059 48.6412Z" fill="#FEFFC5"/>
<path d="M55.4879 48.6152C53.7398 48.6152 52.4874 48.6152 51.235 48.6152C42.8899 48.6152 34.5515 48.6219 26.2065 48.6017C25.3894 48.6017 24.5522 48.5611 23.7686 48.3584C22.0339 47.9057 20.8954 46.3382 20.8686 44.5544C20.8485 42.7774 21.9737 41.2165 23.6614 40.649C24.5187 40.3584 25.4028 40.3922 26.2868 40.3922C35.2012 40.3922 44.1089 40.3922 53.0232 40.3922C53.6863 40.3922 54.356 40.3922 55.0191 40.3922C55.0994 40.2301 55.1798 40.0679 55.2602 39.9057C54.135 38.8247 52.9964 37.7639 51.8913 36.6625C50.0026 34.7774 48.0939 32.9193 46.2788 30.9666C44.6781 29.2368 44.7652 26.8855 46.3458 25.2976C47.8461 23.7977 50.15 23.7166 51.8511 25.122C52.1927 25.4058 52.4941 25.7368 52.8022 26.0544C57.6713 30.9666 62.547 35.8787 67.4161 40.7976C70.1018 43.5138 70.1219 45.4666 67.4898 48.1355C62.5336 53.149 57.5708 58.1422 52.6146 63.1557C51.8913 63.8854 51.1479 64.5611 50.1098 64.7841C48.3417 65.1625 46.607 64.4192 45.7028 62.8922C44.7585 61.2976 44.9393 59.4327 46.3324 57.9733C48.7904 55.4057 51.322 52.9125 53.8202 50.3787C54.2689 49.9395 54.6842 49.4733 55.4879 48.6152Z" fill="#DDE116"/>
</svg>
